<svg xmlns="http://www.w3.org/2000/svg" xmlns:xlink="http://www.w3.org/1999/xlink" width="500" zoomAndPan="magnify" viewBox="0 0 375 374.999991" height="500" preserveAspectRatio="xMidYMid meet" version="1.0"><defs><g/></defs><g fill="#000000" fill-opacity="1"><g transform="translate(138.893681, 178.359305)"><g><path d="M 65.0625 -109.484375 L 104.328125 -15.328125 C 105.890625 -11.679688 107.503906 -8.34375 109.171875 -5.3125 C 110.835938 -2.289062 111.828125 -0.519531 112.140625 0 L 93.21875 0 L 55.84375 -89.625 C 54.894531 -91.914062 53.664062 -94.804688 52.15625 -98.296875 C 50.644531 -101.796875 49.160156 -104.691406 47.703125 -106.984375 C 46.660156 -101.765625 44.703125 -96.234375 41.828125 -90.390625 C 38.960938 -84.554688 35.707031 -78.640625 32.0625 -72.640625 C 28.414062 -66.648438 24.894531 -60.785156 21.5 -55.046875 C 18.113281 -49.316406 15.328125 -43.894531 13.140625 -38.78125 C 10.328125 -32.113281 9.023438 -26.742188 9.234375 -22.671875 C 9.441406 -18.609375 10.71875 -15.953125 13.0625 -14.703125 C 15.40625 -13.453125 18.453125 -13.710938 22.203125 -15.484375 C 24.503906 -16.628906 26.957031 -18.320312 29.5625 -20.5625 C 32.164062 -22.8125 34.820312 -25.316406 37.53125 -28.078125 C 40.25 -30.835938 42.804688 -33.570312 45.203125 -36.28125 C 47.597656 -39 49.734375 -41.347656 51.609375 -43.328125 C 53.585938 -45.410156 55.828125 -47 58.328125 -48.09375 C 60.835938 -49.1875 63.34375 -49.160156 65.84375 -48.015625 C 66.882812 -47.597656 68.054688 -46.789062 69.359375 -45.59375 C 70.671875 -44.394531 71.953125 -43.144531 73.203125 -41.84375 C 74.453125 -40.539062 75.492188 -39.46875 76.328125 -38.625 C 74.035156 -39.15625 71.476562 -38.710938 68.65625 -37.296875 C 65.84375 -35.890625 63.132812 -34.039062 60.53125 -31.75 C 57.613281 -29.25 54.585938 -26.222656 51.453125 -22.671875 C 48.328125 -19.128906 45.09375 -15.609375 41.75 -12.109375 C 38.414062 -8.617188 34.925781 -5.726562 31.28125 -3.4375 C 27.632812 -1.144531 23.878906 0 20.015625 0 C 11.773438 0 6.25 -3.335938 3.4375 -10.015625 C 1.976562 -13.660156 1.507812 -17.566406 2.03125 -21.734375 C 2.550781 -25.910156 3.722656 -30.160156 5.546875 -34.484375 C 7.378906 -38.816406 9.546875 -43.066406 12.046875 -47.234375 C 14.546875 -51.398438 17.097656 -55.332031 19.703125 -59.03125 C 22.316406 -62.738281 24.5625 -66.050781 26.4375 -68.96875 C 27.894531 -71.164062 29.691406 -74.035156 31.828125 -77.578125 C 33.960938 -81.117188 36.125 -84.894531 38.3125 -88.90625 C 40.507812 -92.925781 42.363281 -96.757812 43.875 -100.40625 C 45.382812 -104.0625 46.191406 -107.085938 46.296875 -109.484375 Z M 65.0625 -109.484375 "/></g></g></g><g fill="#000000" fill-opacity="1"><g transform="translate(109.126909, 272.025993)"><g><path d="M 47.078125 0 L 7.984375 -94 C 6.304688 -97.75 4.660156 -101.160156 3.046875 -104.234375 C 1.429688 -107.316406 0.414062 -109.066406 0 -109.484375 L 18.921875 -109.484375 L 56.3125 -19.703125 C 57.25 -17.515625 58.5 -14.671875 60.0625 -11.171875 C 61.625 -7.679688 63.082031 -4.738281 64.4375 -2.34375 C 65.582031 -7.5625 67.585938 -13.085938 70.453125 -18.921875 C 73.328125 -24.765625 76.585938 -30.679688 80.234375 -36.671875 C 83.878906 -42.671875 87.394531 -48.5625 90.78125 -54.34375 C 94.175781 -60.132812 96.96875 -65.585938 99.15625 -70.703125 C 102.289062 -78.203125 103.570312 -84.21875 103 -88.75 C 102.425781 -93.289062 100.625 -95.925781 97.59375 -96.65625 C 95.507812 -97.175781 93.375 -96.941406 91.1875 -95.953125 C 89 -94.960938 86.882812 -93.632812 84.84375 -91.96875 C 82.8125 -90.300781 80.910156 -88.550781 79.140625 -86.71875 C 77.367188 -84.894531 75.804688 -83.359375 74.453125 -82.109375 C 72.578125 -80.441406 70.515625 -79.242188 68.265625 -78.515625 C 66.023438 -77.785156 63.8125 -77.890625 61.625 -78.828125 C 60.6875 -79.347656 59.566406 -80.207031 58.265625 -81.40625 C 56.960938 -82.601562 55.679688 -83.851562 54.421875 -85.15625 C 53.171875 -86.46875 52.128906 -87.539062 51.296875 -88.375 C 53.703125 -87.75 56.285156 -88.164062 59.046875 -89.625 C 61.804688 -91.082031 64.488281 -92.957031 67.09375 -95.25 C 69.601562 -97.332031 72.082031 -99.570312 74.53125 -101.96875 C 76.976562 -104.375 79.660156 -106.4375 82.578125 -108.15625 C 85.503906 -109.875 88.738281 -110.734375 92.28125 -110.734375 C 96.34375 -110.734375 99.804688 -109.847656 102.671875 -108.078125 C 105.546875 -106.304688 107.609375 -103.800781 108.859375 -100.5625 C 110.421875 -96.914062 110.941406 -92.976562 110.421875 -88.75 C 109.898438 -84.53125 108.703125 -80.203125 106.828125 -75.765625 C 104.953125 -71.335938 102.734375 -66.988281 100.171875 -62.71875 C 97.617188 -58.445312 95.066406 -54.40625 92.515625 -50.59375 C 89.960938 -46.789062 87.742188 -43.429688 85.859375 -40.515625 C 84.503906 -38.316406 82.734375 -35.445312 80.546875 -31.90625 C 78.359375 -28.363281 76.171875 -24.582031 73.984375 -20.5625 C 71.796875 -16.550781 69.941406 -12.71875 68.421875 -9.0625 C 66.910156 -5.414062 66.15625 -2.394531 66.15625 0 Z M 47.078125 0 "/></g></g></g></svg>